<svg width="360" height="459" viewBox="0 0 360 459" fill="none" xmlns="http://www.w3.org/2000/svg">
<ellipse cx="180" cy="433.5" rx="142" ry="25.5" fill="#68C067"/>
<path d="M354.858 168.237C338.013 31.0566 232.098 7.55457 180.288 5C47.8295 8.06549 8.01489 119.189 5.71823 167.471C-8.06326 289.324 181.054 438 181.054 438C251.494 364.428 359.452 291.623 354.858 168.237Z" fill="#136E39" stroke="white" stroke-width="10"/>
<path d="M74 201.528C92.5773 174.717 123.722 153.377 144.485 149C109.515 173.075 114.979 249.132 180 252.962C246.66 249.132 249.392 173.075 215.515 149C243.381 152.83 273.979 183.472 286 201.528C278.351 216.849 238.464 265 180 265C127 265 87.4777 223.78 74 201.528Z" fill="white"/>
<path d="M177.257 70.0972C93.4195 73.17 61.1209 142.161 56 175.45C70.8142 155.513 116.683 113.226 177.257 110.153C237.83 107.081 286.808 153.503 304 176C297.416 137.589 261.094 67.0243 177.257 70.0972Z" fill="white"/>
<ellipse cx="180" cy="187.5" rx="26" ry="26.5" fill="#68C067"/>
</svg>
