<svg width="366" height="476" viewBox="0 0 366 476" fill="none" xmlns="http://www.w3.org/2000/svg">
<path d="M366 432.269C366 446.48 285.068 476 184 476C82.9319 476 0 446.48 0 432.269C0 419.865 45.9165 400.932 129 398.5C137.954 406.032 184 443 184 443C184 443 226.225 405.101 233.5 398.5C317.976 400.78 366 419.726 366 432.269Z" fill="#136E39"/>
<path d="M357.858 163.237C341.013 26.0566 235.098 2.55457 183.288 0C50.8295 3.06549 11.0149 114.189 8.71823 162.471C-5.06326 284.324 184.054 433 184.054 433C254.494 359.428 362.452 286.623 357.858 163.237Z" fill="white"/>
<path d="M59.5 196.528C78.0773 169.717 126.722 148.377 147.485 144C107 159.574 118 247.962 183 247.962C253 247.962 255.5 157.496 218.515 144C246.381 147.83 294.979 178.472 307 196.528C299.351 211.849 241.464 281.5 183 281.5C130 281.5 72.9777 218.78 59.5 196.528Z" fill="#68C067"/>
<path d="M180.257 49C96.4195 52.0728 64.1209 137.161 59 170.45C73.8142 150.513 119.683 113.573 180.257 110.5C240.83 107.427 289.808 148.503 307 171C300.416 132.589 264.094 45.9272 180.257 49Z" fill="#68C067"/>
<ellipse cx="183" cy="186.5" rx="30" ry="30.5" fill="#136E39"/>
</svg>
