<svg width="350" height="433" viewBox="0 0 350 433" fill="none" xmlns="http://www.w3.org/2000/svg">
<path d="M349.858 163.237C333.013 26.0566 227.098 2.55457 175.288 0C42.8295 3.06549 3.01489 114.189 0.718225 162.471C-13.0633 284.324 176.054 433 176.054 433C246.494 359.428 354.452 286.623 349.858 163.237Z" fill="#136E39"/>
<path d="M69 196.528C87.5773 169.717 118.722 148.377 139.485 144C104.515 168.075 109.979 244.132 175 247.962C241.66 244.132 244.392 168.075 210.515 144C238.381 147.83 268.979 178.472 281 196.528C273.351 211.849 233.464 260 175 260C122 260 82.4777 218.78 69 196.528Z" fill="white"/>
<path d="M172.257 65.0972C88.4195 68.17 56.1209 137.161 51 170.45C65.8142 150.513 111.683 108.226 172.257 105.153C232.83 102.081 281.808 148.503 299 171C292.416 132.589 256.094 62.0243 172.257 65.0972Z" fill="white"/>
<ellipse cx="175" cy="182.5" rx="26" ry="26.5" fill="#68C067"/>
</svg>
